<svg width="157" height="43" viewBox="0 0 157 43" fill="none" xmlns="http://www.w3.org/2000/svg">
<g filter="url(#filter0_d)">
<path d="M25.6414 26.6172L29.0867 8.40625H34.3426L28.6648 34H23.3562L19.1902 16.8789L15.0242 34H9.71562L4.03789 8.40625H9.29375L12.7566 26.582L16.9754 8.40625H21.4402L25.6414 26.6172ZM48.6652 34.3516C45.8762 34.3516 43.6027 33.4961 41.8449 31.7852C40.0988 30.0742 39.2258 27.7949 39.2258 24.9473V24.4551C39.2258 22.5449 39.5949 20.8398 40.3332 19.3398C41.0715 17.8281 42.1144 16.668 43.4621 15.8594C44.8215 15.0391 46.3684 14.6289 48.1027 14.6289C50.7043 14.6289 52.7492 15.4492 54.2375 17.0898C55.7375 18.7305 56.4875 21.0566 56.4875 24.0684V26.1426H44.3762C44.5402 27.3848 45.0324 28.3809 45.8527 29.1309C46.6848 29.8809 47.7336 30.2559 48.9992 30.2559C50.9562 30.2559 52.4855 29.5469 53.5871 28.1289L56.0832 30.9238C55.3215 32.002 54.2902 32.8457 52.9894 33.4551C51.6887 34.0527 50.2473 34.3516 48.6652 34.3516ZM48.0852 18.7422C47.0773 18.7422 46.257 19.082 45.6242 19.7617C45.0031 20.4414 44.6047 21.4141 44.4289 22.6797H51.4953V22.2754C51.4719 21.1504 51.1672 20.2832 50.5812 19.6738C49.9953 19.0527 49.1633 18.7422 48.0852 18.7422ZM80.1266 24.666C80.1266 27.7129 79.4762 30.0918 78.1754 31.8027C76.8746 33.502 75.0582 34.3516 72.7262 34.3516C70.6637 34.3516 69.0172 33.5605 67.7867 31.9785L67.5582 34H62.9879V7H68.068V16.6855C69.2398 15.3145 70.7809 14.6289 72.691 14.6289C75.0113 14.6289 76.8277 15.4844 78.1402 17.1953C79.4645 18.8945 80.1266 21.291 80.1266 24.3848V24.666ZM75.0465 24.2969C75.0465 22.375 74.7418 20.9746 74.1324 20.0957C73.523 19.2051 72.6148 18.7598 71.4078 18.7598C69.7906 18.7598 68.6773 19.4219 68.068 20.7461V28.252C68.6891 29.5879 69.8141 30.2559 71.443 30.2559C73.0836 30.2559 74.1617 29.4473 74.6773 27.8301C74.9234 27.0566 75.0465 25.8789 75.0465 24.2969Z" fill="#102A42"/>
<path d="M87.207 34V8.40625H95.082C97.332 8.40625 99.3418 8.91602 101.111 9.93555C102.893 10.9434 104.281 12.3848 105.277 14.2598C106.273 16.123 106.771 18.2441 106.771 20.623V21.8008C106.771 24.1797 106.279 26.2949 105.295 28.1465C104.322 29.998 102.945 31.4336 101.164 32.4531C99.3828 33.4727 97.373 33.9883 95.1348 34H87.207ZM92.4805 12.6777V29.7637H95.0293C97.0918 29.7637 98.668 29.0898 99.7578 27.7422C100.848 26.3945 101.404 24.4668 101.428 21.959V20.6055C101.428 18.0039 100.889 16.0352 99.8105 14.6992C98.7324 13.3516 97.1562 12.6777 95.082 12.6777H92.4805ZM122.641 34.3516C119.852 34.3516 117.579 33.4961 115.821 31.7852C114.075 30.0742 113.202 27.7949 113.202 24.9473V24.4551C113.202 22.5449 113.571 20.8398 114.309 19.3398C115.047 17.8281 116.09 16.668 117.438 15.8594C118.797 15.0391 120.344 14.6289 122.079 14.6289C124.68 14.6289 126.725 15.4492 128.213 17.0898C129.713 18.7305 130.463 21.0566 130.463 24.0684V26.1426H118.352C118.516 27.3848 119.008 28.3809 119.829 29.1309C120.661 29.8809 121.709 30.2559 122.975 30.2559C124.932 30.2559 126.461 29.5469 127.563 28.1289L130.059 30.9238C129.297 32.002 128.266 32.8457 126.965 33.4551C125.664 34.0527 124.223 34.3516 122.641 34.3516ZM122.061 18.7422C121.053 18.7422 120.233 19.082 119.6 19.7617C118.979 20.4414 118.58 21.4141 118.405 22.6797H125.471V22.2754C125.448 21.1504 125.143 20.2832 124.557 19.6738C123.971 19.0527 123.139 18.7422 122.061 18.7422ZM143.837 27.7949L147.37 14.9805H152.679L146.262 34H141.411L134.995 14.9805H140.304L143.837 27.7949Z" fill="#2CAEBA"/>
</g>
<defs>
<filter id="filter0_d" x="0.0378876" y="7" width="156.641" height="35.3516" filterUnits="userSpaceOnUse" color-interpolation-filters="sRGB">
<feFlood flood-opacity="0" result="BackgroundImageFix"/>
<feColorMatrix in="SourceAlpha" type="matrix" values="0 0 0 0 0 0 0 0 0 0 0 0 0 0 0 0 0 0 127 0"/>
<feOffset dy="4"/>
<feGaussianBlur stdDeviation="2"/>
<feColorMatrix type="matrix" values="0 0 0 0 0 0 0 0 0 0 0 0 0 0 0 0 0 0 0.25 0"/>
<feBlend mode="normal" in2="BackgroundImageFix" result="effect1_dropShadow"/>
<feBlend mode="normal" in="SourceGraphic" in2="effect1_dropShadow" result="shape"/>
</filter>
</defs>
</svg>
